<svg version="1.1" xmlns="http://www.w3.org/2000/svg" xmlns:xlink="http://www.w3.org/1999/xlink" width="1556" height="852"><defs/><g><g transform="translate(-126,-86) scale(1,1)"><rect fill="#C0C0C0" stroke="none" x="143" y="167" width="256" height="15" opacity="0.2"/></g><g transform="translate(-126,-86) scale(1,1)"><rect fill="#C0C0C0" stroke="none" x="143" y="181" width="640" height="298" opacity="0.2"/></g><g transform="translate(-126,-86) scale(1,1)"><rect fill="#ffffff" stroke="none" x="136" y="175" width="640" height="297"/></g><g transform="translate(-126,-86) scale(1,1)"><path fill="none" stroke="#000000" d="M 136 175 L 776 175 L 776 472 L 136 472 L 136 175 Z Z" stroke-miterlimit="10"/></g><g transform="translate(-126,-86) scale(1,1)"><rect fill="#ffffff" stroke="none" x="136" y="160" width="256" height="15"/></g><g transform="translate(-126,-86) scale(1,1)"><path fill="none" stroke="#000000" d="M 136 160 L 392 160 L 392 175 L 136 175 L 136 160 Z Z" stroke-miterlimit="10"/></g><g transform="translate(-126,-86) scale(1,1)"><rect fill="#ffffff" stroke="none" x="136" y="174" width="640" height="298"/></g><g transform="translate(-126,-86) scale(1,1)"><path fill="none" stroke="#000000" d="M 136 174 L 776 174 L 776 472 L 136 472 L 136 174 Z Z" stroke-miterlimit="10"/></g><g transform="translate(-126,-86) scale(1,1)"><g><path fill="none" stroke="none"/><text fill="#000000" stroke="none" font-family="Arial" font-size="13px" font-style="normal" font-weight="bold" text-decoration="none" x="438.29638671875" y="194.5">Model</text></g></g><g transform="translate(-126,-86) scale(1,1)"><rect fill="#C0C0C0" stroke="none" x="575" y="279" width="128" height="130" opacity="0.2"/></g><g transform="translate(-126,-86) scale(1,1)"><rect fill="#ffffff" stroke="none" x="568" y="272" width="128" height="130"/></g><g transform="translate(-126,-86) scale(1,1)"><path fill="none" stroke="#000000" d="M 568 272 L 696 272 L 696 402 L 568 402 L 568 272 Z Z" stroke-miterlimit="10"/></g><g transform="translate(-126,-86) scale(1,1)"><path fill="none" stroke="#000000" d="M 568 297 L 696 297" stroke-miterlimit="10"/></g><g transform="translate(-126,-86) scale(1,1)"><path fill="none" stroke="#000000" d="M 568 350 L 696 350" stroke-miterlimit="10"/></g><g transform="translate(-126,-86) scale(1,1)"><g><path fill="none" stroke="none"/><text fill="#000000" stroke="none" font-family="Arial" font-size="13px" font-style="normal" font-weight="bold" text-decoration="none" x="608.510498046875" y="291.5">Topping</text></g></g><g transform="translate(-126,-86) scale(1,1)"><g><path fill="none" stroke="none"/><text fill="#000000" stroke="none" font-family="Arial" font-size="13px" font-style="normal" font-weight="normal" text-decoration="none" x="573" y="314.5">-nombre: String</text></g></g><g transform="translate(-126,-86) scale(1,1)"><g><path fill="none" stroke="none"/><text fill="#000000" stroke="none" font-family="Arial" font-size="13px" font-style="normal" font-weight="normal" text-decoration="none" x="573" y="329.5">-descripcion: String</text></g></g><g transform="translate(-126,-86) scale(1,1)"><g><path fill="none" stroke="none"/><text fill="#000000" stroke="none" font-family="Arial" font-size="13px" font-style="normal" font-weight="normal" text-decoration="none" x="573" y="344.5">-costo: int</text></g></g><g transform="translate(-126,-86) scale(1,1)"><g><path fill="none" stroke="none"/><text fill="#000000" stroke="none" font-family="Arial" font-size="13px" font-style="normal" font-weight="normal" text-decoration="none" x="573" y="367.5">+Topping(...)</text></g></g><g transform="translate(-126,-86) scale(1,1)"><g><path fill="none" stroke="none"/><text fill="#000000" stroke="none" font-family="Arial" font-size="13px" font-style="normal" font-weight="normal" text-decoration="none" x="573" y="382.5">+setters()</text></g></g><g transform="translate(-126,-86) scale(1,1)"><g><path fill="none" stroke="none"/><text fill="#000000" stroke="none" font-family="Arial" font-size="13px" font-style="normal" font-weight="normal" text-decoration="none" x="573" y="397.5">+getters()</text></g></g><g transform="translate(-126,-86) scale(1,1)"><path fill="none" stroke="#000000" d="M 567 338 L 410 342" stroke-miterlimit="10"/></g><g transform="translate(-126,-86) scale(1,1)"><path fill="#FFFFFF" stroke="none" d="M 420.0521640288988 337.5330101481968 L 410 342 L 420.26659216613535 345.9493145347323 L 431.99286322514774 341.4396722745185"/></g><g transform="translate(-126,-86) scale(1,1)"><path fill="none" stroke="#000000" d="M 420.0521640288988 337.5330101481968 L 410 342 L 420.26659216613535 345.9493145347323 L 431.99286322514774 341.4396722745185 L 420.0521640288988 337.5330101481968" stroke-miterlimit="10"/></g><g transform="translate(-126,-86) scale(1,1)"><g><path fill="none" stroke="none"/><text fill="#000000" stroke="none" font-family="Arial" font-size="13px" font-style="normal" font-weight="normal" text-decoration="none" x="535.5" y="332.5">0..*</text></g></g><g transform="translate(-126,-86) scale(1,1)"><g><path fill="none" stroke="none"/><text fill="#000000" stroke="none" font-family="Arial" font-size="13px" font-style="normal" font-weight="normal" text-decoration="none" x="421.5" y="334.5">0..*</text></g></g><g transform="translate(-126,-86) scale(1,1)"><rect fill="#C0C0C0" stroke="none" x="983" y="119" width="262.4000000000001" height="15" opacity="0.2"/></g><g transform="translate(-126,-86) scale(1,1)"><rect fill="#C0C0C0" stroke="none" x="983" y="133" width="656" height="330" opacity="0.2"/></g><g transform="translate(-126,-86) scale(1,1)"><rect fill="#ffffff" stroke="none" x="976" y="127" width="656" height="329"/></g><g transform="translate(-126,-86) scale(1,1)"><path fill="none" stroke="#000000" d="M 976 127 L 1632 127 L 1632 456 L 976 456 L 976 127 Z Z" stroke-miterlimit="10"/></g><g transform="translate(-126,-86) scale(1,1)"><rect fill="#ffffff" stroke="none" x="976" y="112" width="262.4000000000001" height="15"/></g><g transform="translate(-126,-86) scale(1,1)"><path fill="none" stroke="#000000" d="M 976 112 L 1238.4 112 L 1238.4 127 L 976 127 L 976 112 Z Z" stroke-miterlimit="10"/></g><g transform="translate(-126,-86) scale(1,1)"><rect fill="#ffffff" stroke="none" x="976" y="126" width="656" height="330"/></g><g transform="translate(-126,-86) scale(1,1)"><path fill="none" stroke="#000000" d="M 976 126 L 1632 126 L 1632 456 L 976 456 L 976 126 Z Z" stroke-miterlimit="10"/></g><g transform="translate(-126,-86) scale(1,1)"><g><path fill="none" stroke="none"/><text fill="#000000" stroke="none" font-family="Arial" font-size="13px" font-style="normal" font-weight="bold" text-decoration="none" x="1275.82275390625" y="146.5">Controller</text></g></g><g transform="translate(-126,-86) scale(1,1)"><rect fill="#C0C0C0" stroke="none" x="1031" y="175" width="115.21533203125" height="72" opacity="0.2"/></g><g transform="translate(-126,-86) scale(1,1)"><rect fill="#ffffff" stroke="none" x="1024" y="168" width="115.21533203125" height="72"/></g><g transform="translate(-126,-86) scale(1,1)"><path fill="none" stroke="#000000" d="M 1024 168 L 1139.21533203125 168 L 1139.21533203125 240 L 1024 240 L 1024 168 Z Z" stroke-miterlimit="10"/></g><g transform="translate(-126,-86) scale(1,1)"><path fill="none" stroke="#000000" d="M 1024 193 L 1139.21533203125 193" stroke-miterlimit="10"/></g><g transform="translate(-126,-86) scale(1,1)"><path fill="none" stroke="#000000" d="M 1024 231 L 1139.21533203125 231" stroke-miterlimit="10"/></g><g transform="translate(-126,-86) scale(1,1)"><g><path fill="none" stroke="none"/><text fill="#000000" stroke="none" font-family="Arial" font-size="13px" font-style="normal" font-weight="bold" text-decoration="none" x="1033.19091796875" y="187.5">BebidaController</text></g></g><g transform="translate(-126,-86) scale(1,1)"><g><path fill="none" stroke="none"/><text fill="#000000" stroke="none" font-family="Arial" font-size="13px" font-style="normal" font-weight="normal" text-decoration="none" x="1029" y="210.5">-model: Bebida</text></g></g><g transform="translate(-126,-86) scale(1,1)"><g><path fill="none" stroke="none"/><text fill="#000000" stroke="none" font-family="Arial" font-size="13px" font-style="normal" font-weight="normal" text-decoration="none" x="1029" y="225.5">-view: BebidaView</text></g></g><g transform="translate(-126,-86) scale(1,1)"><path fill="none" stroke="#000000" d="M 1104 168 L 1104 96 L 352 96 L 352 272" stroke-miterlimit="10"/></g><g transform="translate(-126,-86) scale(1,1)"><path fill="none" stroke="#000000" d="M 347.790482243984 261.83732514237585 L 352 272 L 356.209517756016 261.83732514237585" stroke-miterlimit="10"/></g><g transform="translate(-126,-86) scale(1,1)"><path fill="none" stroke="#000000" d="M 1504 248 L 1504 297 L 696 297" stroke-miterlimit="10"/></g><g transform="translate(-126,-86) scale(1,1)"><path fill="none" stroke="#000000" d="M 706.1626748576241 292.790482243984 L 696 297 L 706.1626748576241 301.209517756016" stroke-miterlimit="10"/></g><g transform="translate(-126,-86) scale(1,1)"><rect fill="#C0C0C0" stroke="none" x="1223" y="351" width="166.5361328125" height="72" opacity="0.2"/></g><g transform="translate(-126,-86) scale(1,1)"><rect fill="#ffffff" stroke="none" x="1216" y="344" width="166.5361328125" height="72"/></g><g transform="translate(-126,-86) scale(1,1)"><path fill="none" stroke="#000000" d="M 1216 344 L 1382.5361328125 344 L 1382.5361328125 416 L 1216 416 L 1216 344 Z Z" stroke-miterlimit="10"/></g><g transform="translate(-126,-86) scale(1,1)"><path fill="none" stroke="#000000" d="M 1216 369 L 1382.5361328125 369" stroke-miterlimit="10"/></g><g transform="translate(-126,-86) scale(1,1)"><path fill="none" stroke="#000000" d="M 1216 407 L 1382.5361328125 407" stroke-miterlimit="10"/></g><g transform="translate(-126,-86) scale(1,1)"><g><path fill="none" stroke="none"/><text fill="#000000" stroke="none" font-family="Arial" font-size="13px" font-style="normal" font-weight="bold" text-decoration="none" x="1245.074951171875" y="363.5">ProductoController</text></g></g><g transform="translate(-126,-86) scale(1,1)"><g><path fill="none" stroke="none"/><text fill="#000000" stroke="none" font-family="Arial" font-size="13px" font-style="normal" font-weight="normal" text-decoration="none" x="1221" y="386.5">-bebida: BebidaController</text></g></g><g transform="translate(-126,-86) scale(1,1)"><g><path fill="none" stroke="none"/><text fill="#000000" stroke="none" font-family="Arial" font-size="13px" font-style="normal" font-weight="normal" text-decoration="none" x="1221" y="401.5">-topping: ToppingController</text></g></g><g transform="translate(-126,-86) scale(1,1)"><path fill="none" stroke="#000000" d="M 1481 248 L 1481 380 L 1383 380" stroke-miterlimit="10"/></g><g transform="translate(-126,-86) scale(1,1)"><path fill="#FFFFFF" stroke="none" d="M 1393.162674857624 375.790482243984 L 1383 380 L 1393.162674857624 384.209517756016 L 1405 380"/></g><g transform="translate(-126,-86) scale(1,1)"><path fill="none" stroke="#000000" d="M 1393.162674857624 375.790482243984 L 1383 380 L 1393.162674857624 384.209517756016 L 1405 380 L 1393.162674857624 375.790482243984" stroke-miterlimit="10"/></g><g transform="translate(-126,-86) scale(1,1)"><path fill="none" stroke="#000000" d="M 1136 240 L 1136 368 L 1216 368" stroke-miterlimit="10"/></g><g transform="translate(-126,-86) scale(1,1)"><path fill="#FFFFFF" stroke="none" d="M 1205.837325142376 372.209517756016 L 1216 368 L 1205.837325142376 363.790482243984 L 1194 368"/></g><g transform="translate(-126,-86) scale(1,1)"><path fill="none" stroke="#000000" d="M 1205.837325142376 372.209517756016 L 1216 368 L 1205.837325142376 363.790482243984 L 1194 368 L 1205.837325142376 372.209517756016" stroke-miterlimit="10"/></g><g transform="translate(-126,-86) scale(1,1)"><rect fill="#C0C0C0" stroke="none" x="1199" y="183" width="210.2587890625" height="70" opacity="0.2"/></g><g transform="translate(-126,-86) scale(1,1)"><rect fill="#ffffff" stroke="none" x="1192" y="176" width="210.2587890625" height="70"/></g><g transform="translate(-126,-86) scale(1,1)"><path fill="none" stroke="#000000" d="M 1192 176 L 1402.2587890625 176 L 1402.2587890625 246 L 1192 246 L 1192 176 Z Z" stroke-miterlimit="10"/></g><g transform="translate(-126,-86) scale(1,1)"><path fill="none" stroke="#000000" d="M 1192 201 L 1402.2587890625 201" stroke-miterlimit="10"/></g><g transform="translate(-126,-86) scale(1,1)"><path fill="none" stroke="#000000" d="M 1192 224 L 1402.2587890625 224" stroke-miterlimit="10"/></g><g transform="translate(-126,-86) scale(1,1)"><g><path fill="none" stroke="none"/><text fill="#000000" stroke="none" font-family="Arial" font-size="13px" font-style="normal" font-weight="bold" text-decoration="none" x="1255.2158203125" y="195.5">DBConnection</text></g></g><g transform="translate(-126,-86) scale(1,1)"><g><path fill="none" stroke="none"/><text fill="#000000" stroke="none" font-family="Arial" font-size="13px" font-style="normal" font-weight="normal" text-decoration="none" x="1197" y="218.5">«static»-connection: Connection</text></g></g><g transform="translate(-126,-86) scale(1,1)"><g><path fill="none" stroke="none"/><text fill="#000000" stroke="none" font-family="Arial" font-size="13px" font-style="normal" font-weight="normal" text-decoration="none" x="1197" y="241.5">«static»+getInstance(): Connection</text></g></g><g transform="translate(-126,-86) scale(1,1)"><rect fill="#C0C0C0" stroke="none" x="999" y="527" width="272" height="15" opacity="0.2"/></g><g transform="translate(-126,-86) scale(1,1)"><rect fill="#C0C0C0" stroke="none" x="999" y="541" width="680" height="394" opacity="0.2"/></g><g transform="translate(-126,-86) scale(1,1)"><rect fill="#ffffff" stroke="none" x="992" y="535" width="680" height="393"/></g><g transform="translate(-126,-86) scale(1,1)"><path fill="none" stroke="#000000" d="M 992 535 L 1672 535 L 1672 928 L 992 928 L 992 535 Z Z" stroke-miterlimit="10"/></g><g transform="translate(-126,-86) scale(1,1)"><rect fill="#ffffff" stroke="none" x="992" y="520" width="272" height="15"/></g><g transform="translate(-126,-86) scale(1,1)"><path fill="none" stroke="#000000" d="M 992 520 L 1264 520 L 1264 535 L 992 535 L 992 520 Z Z" stroke-miterlimit="10"/></g><g transform="translate(-126,-86) scale(1,1)"><rect fill="#ffffff" stroke="none" x="992" y="534" width="680" height="394"/></g><g transform="translate(-126,-86) scale(1,1)"><path fill="none" stroke="#000000" d="M 992 534 L 1672 534 L 1672 928 L 992 928 L 992 534 Z Z" stroke-miterlimit="10"/></g><g transform="translate(-126,-86) scale(1,1)"><g><path fill="none" stroke="none"/><text fill="#000000" stroke="none" font-family="Arial" font-size="13px" font-style="normal" font-weight="bold" text-decoration="none" x="1317.911376953125" y="554.5">View</text></g></g><g transform="translate(-126,-86) scale(1,1)"><rect fill="#C0C0C0" stroke="none" x="247" y="279" width="169.4052734375" height="145" opacity="0.2"/></g><g transform="translate(-126,-86) scale(1,1)"><rect fill="#ffffff" stroke="none" x="240" y="272" width="169.4052734375" height="145"/></g><g transform="translate(-126,-86) scale(1,1)"><path fill="none" stroke="#000000" d="M 240 272 L 409.4052734375 272 L 409.4052734375 417 L 240 417 L 240 272 Z Z" stroke-miterlimit="10"/></g><g transform="translate(-126,-86) scale(1,1)"><path fill="none" stroke="#000000" d="M 240 297 L 409.4052734375 297" stroke-miterlimit="10"/></g><g transform="translate(-126,-86) scale(1,1)"><path fill="none" stroke="#000000" d="M 240 365 L 409.4052734375 365" stroke-miterlimit="10"/></g><g transform="translate(-126,-86) scale(1,1)"><g><path fill="none" stroke="none"/><text fill="#000000" stroke="none" font-family="Arial" font-size="13px" font-style="normal" font-weight="bold" text-decoration="none" x="304.463134765625" y="291.5">Bebida</text></g></g><g transform="translate(-126,-86) scale(1,1)"><g><path fill="none" stroke="none"/><text fill="#000000" stroke="none" font-family="Arial" font-size="13px" font-style="normal" font-weight="normal" text-decoration="none" x="245" y="314.5">-nombre: String</text></g></g><g transform="translate(-126,-86) scale(1,1)"><g><path fill="none" stroke="none"/><text fill="#000000" stroke="none" font-family="Arial" font-size="13px" font-style="normal" font-weight="normal" text-decoration="none" x="245" y="329.5">-descripcion: String</text></g></g><g transform="translate(-126,-86) scale(1,1)"><g><path fill="none" stroke="none"/><text fill="#000000" stroke="none" font-family="Arial" font-size="13px" font-style="normal" font-weight="normal" text-decoration="none" x="245" y="344.5">-costo: int</text></g></g><g transform="translate(-126,-86) scale(1,1)"><g><path fill="none" stroke="none"/><text fill="#000000" stroke="none" font-family="Arial" font-size="13px" font-style="normal" font-weight="normal" text-decoration="none" x="245" y="359.5">-extras: ArrayList&lt;Topping&gt;</text></g></g><g transform="translate(-126,-86) scale(1,1)"><g><path fill="none" stroke="none"/><text fill="#000000" stroke="none" font-family="Arial" font-size="13px" font-style="normal" font-weight="normal" text-decoration="none" x="245" y="382.5">+Bebida(...)</text></g></g><g transform="translate(-126,-86) scale(1,1)"><g><path fill="none" stroke="none"/><text fill="#000000" stroke="none" font-family="Arial" font-size="13px" font-style="normal" font-weight="normal" text-decoration="none" x="245" y="397.5">+setters()</text></g></g><g transform="translate(-126,-86) scale(1,1)"><g><path fill="none" stroke="none"/><text fill="#000000" stroke="none" font-family="Arial" font-size="13px" font-style="normal" font-weight="normal" text-decoration="none" x="245" y="412.5">+geters()</text></g></g><g transform="translate(-126,-86) scale(1,1)"><rect fill="#C0C0C0" stroke="none" x="1239" y="767" width="165.7109375" height="44" opacity="0.2"/></g><g transform="translate(-126,-86) scale(1,1)"><rect fill="#ffffff" stroke="none" x="1232" y="760" width="165.7109375" height="44"/></g><g transform="translate(-126,-86) scale(1,1)"><path fill="none" stroke="#000000" d="M 1232 760 L 1397.7109375 760 L 1397.7109375 804 L 1232 804 L 1232 760 Z Z" stroke-miterlimit="10"/></g><g transform="translate(-126,-86) scale(1,1)"><path fill="none" stroke="#000000" d="M 1232 785 L 1397.7109375 785" stroke-miterlimit="10"/></g><g transform="translate(-126,-86) scale(1,1)"><path fill="none" stroke="#000000" d="M 1232 795 L 1397.7109375 795" stroke-miterlimit="10"/></g><g transform="translate(-126,-86) scale(1,1)"><g><path fill="none" stroke="none"/><text fill="#000000" stroke="none" font-family="Arial" font-size="13px" font-style="normal" font-weight="bold" text-decoration="none" x="1242.94921875" y="779.5">BebidaToppingController</text></g></g><g transform="translate(-126,-86) scale(1,1)"><rect fill="#C0C0C0" stroke="none" x="1063" y="759" width="148.419921875" height="44" opacity="0.2"/></g><g transform="translate(-126,-86) scale(1,1)"><rect fill="#ffffff" stroke="none" x="1056" y="752" width="148.419921875" height="44"/></g><g transform="translate(-126,-86) scale(1,1)"><path fill="none" stroke="#000000" d="M 1056 752 L 1204.419921875 752 L 1204.419921875 796 L 1056 796 L 1056 752 Z Z" stroke-miterlimit="10"/></g><g transform="translate(-126,-86) scale(1,1)"><path fill="none" stroke="#000000" d="M 1056 777 L 1204.419921875 777" stroke-miterlimit="10"/></g><g transform="translate(-126,-86) scale(1,1)"><path fill="none" stroke="#000000" d="M 1056 787 L 1204.419921875 787" stroke-miterlimit="10"/></g><g transform="translate(-126,-86) scale(1,1)"><g><path fill="none" stroke="none"/><text fill="#000000" stroke="none" font-family="Arial" font-size="13px" font-style="normal" font-weight="bold" text-decoration="none" x="1065.5400390625" y="771.5">CrearBebidaController</text></g></g><g transform="translate(-126,-86) scale(1,1)"><rect fill="#C0C0C0" stroke="none" x="1463" y="767" width="156.33544921875" height="44" opacity="0.2"/></g><g transform="translate(-126,-86) scale(1,1)"><rect fill="#ffffff" stroke="none" x="1456" y="760" width="156.33544921875" height="44"/></g><g transform="translate(-126,-86) scale(1,1)"><path fill="none" stroke="#000000" d="M 1456 760 L 1612.33544921875 760 L 1612.33544921875 804 L 1456 804 L 1456 760 Z Z" stroke-miterlimit="10"/></g><g transform="translate(-126,-86) scale(1,1)"><path fill="none" stroke="#000000" d="M 1456 785 L 1612.33544921875 785" stroke-miterlimit="10"/></g><g transform="translate(-126,-86) scale(1,1)"><path fill="none" stroke="#000000" d="M 1456 795 L 1612.33544921875 795" stroke-miterlimit="10"/></g><g transform="translate(-126,-86) scale(1,1)"><g><path fill="none" stroke="none"/><text fill="#000000" stroke="none" font-family="Arial" font-size="13px" font-style="normal" font-weight="bold" text-decoration="none" x="1466.247802734375" y="779.5">CrearToppingController</text></g></g><g transform="translate(-126,-86) scale(1,1)"><rect fill="#C0C0C0" stroke="none" x="1231" y="591" width="126.01904296875" height="44" opacity="0.2"/></g><g transform="translate(-126,-86) scale(1,1)"><rect fill="#ffffff" stroke="none" x="1224" y="584" width="126.01904296875" height="44"/></g><g transform="translate(-126,-86) scale(1,1)"><path fill="none" stroke="#000000" d="M 1224 584 L 1350.01904296875 584 L 1350.01904296875 628 L 1224 628 L 1224 584 Z Z" stroke-miterlimit="10"/></g><g transform="translate(-126,-86) scale(1,1)"><path fill="none" stroke="#000000" d="M 1224 609 L 1350.01904296875 609" stroke-miterlimit="10"/></g><g transform="translate(-126,-86) scale(1,1)"><path fill="none" stroke="#000000" d="M 1224 619 L 1350.01904296875 619" stroke-miterlimit="10"/></g><g transform="translate(-126,-86) scale(1,1)"><g><path fill="none" stroke="none"/><text fill="#000000" stroke="none" font-family="Arial" font-size="13px" font-style="normal" font-weight="bold" text-decoration="none" x="1233.905029296875" y="603.5">PrincipalController</text></g></g><g transform="translate(-126,-86) scale(1,1)"><rect fill="#C0C0C0" stroke="none" x="1047" y="567" width="81.96630859375" height="44" opacity="0.2"/></g><g transform="translate(-126,-86) scale(1,1)"><rect fill="#ffffff" stroke="none" x="1040" y="560" width="81.96630859375" height="44"/></g><g transform="translate(-126,-86) scale(1,1)"><path fill="none" stroke="#000000" d="M 1040 560 L 1121.96630859375 560 L 1121.96630859375 604 L 1040 604 L 1040 560 Z Z" stroke-miterlimit="10"/></g><g transform="translate(-126,-86) scale(1,1)"><path fill="none" stroke="#000000" d="M 1040 585 L 1121.96630859375 585" stroke-miterlimit="10"/></g><g transform="translate(-126,-86) scale(1,1)"><path fill="none" stroke="#000000" d="M 1040 595 L 1121.96630859375 595" stroke-miterlimit="10"/></g><g transform="translate(-126,-86) scale(1,1)"><g><path fill="none" stroke="none"/><text fill="#000000" stroke="none" font-family="Arial" font-size="13px" font-style="normal" font-weight="bold" text-decoration="none" x="1046.655029296875" y="579.5">BebidaView</text></g></g><g transform="translate(-126,-86) scale(1,1)"><rect fill="#C0C0C0" stroke="none" x="1575" y="591" width="89.8818359375" height="44" opacity="0.2"/></g><g transform="translate(-126,-86) scale(1,1)"><rect fill="#ffffff" stroke="none" x="1568" y="584" width="89.8818359375" height="44"/></g><g transform="translate(-126,-86) scale(1,1)"><path fill="none" stroke="#000000" d="M 1568 584 L 1657.8818359375 584 L 1657.8818359375 628 L 1568 628 L 1568 584 Z Z" stroke-miterlimit="10"/></g><g transform="translate(-126,-86) scale(1,1)"><path fill="none" stroke="#000000" d="M 1568 609 L 1657.8818359375 609" stroke-miterlimit="10"/></g><g transform="translate(-126,-86) scale(1,1)"><path fill="none" stroke="#000000" d="M 1568 619 L 1657.8818359375 619" stroke-miterlimit="10"/></g><g transform="translate(-126,-86) scale(1,1)"><g><path fill="none" stroke="none"/><text fill="#000000" stroke="none" font-family="Arial" font-size="13px" font-style="normal" font-weight="bold" text-decoration="none" x="1575.36279296875" y="603.5">ToppingView</text></g></g><g transform="translate(-126,-86) scale(1,1)"><path fill="none" stroke="#000000" d="M 1081 560 L 1081 240" stroke-miterlimit="10"/></g><g transform="translate(-126,-86) scale(1,1)"><path fill="none" stroke="#000000" d="M 1085.2095177560159 250.16267485762415 L 1081 240 L 1076.7904822439841 250.16267485762415" stroke-miterlimit="10"/></g><g transform="translate(-126,-86) scale(1,1)"><path fill="none" stroke="#000000" d="M 1584 584 L 1584 248" stroke-miterlimit="10"/></g><g transform="translate(-126,-86) scale(1,1)"><path fill="none" stroke="#000000" d="M 1588.2095177560159 258.16267485762415 L 1584 248 L 1579.7904822439841 258.16267485762415" stroke-miterlimit="10"/></g><g transform="translate(-126,-86) scale(1,1)"><path fill="none" stroke="#000000" d="M 1350 608 L 1472 608 L 1472 760" stroke-miterlimit="10"/></g><g transform="translate(-126,-86) scale(1,1)"><path fill="none" stroke="#000000" d="M 1224 608 L 1200 608 L 1200 752" stroke-miterlimit="10"/></g><g transform="translate(-126,-86) scale(1,1)"><path fill="none" stroke="#000000" d="M 1128 752 L 1128 240" stroke-miterlimit="10"/></g><g transform="translate(-126,-86) scale(1,1)"><path fill="none" stroke="#000000" d="M 1534 759 L 1533 249" stroke-miterlimit="10"/></g><g transform="translate(-126,-86) scale(1,1)"><path fill="none" stroke="#000000" d="M 1297 584 L 1297 416" stroke-miterlimit="10"/></g><g transform="translate(-126,-86) scale(1,1)"><path fill="none" stroke="#000000" d="M 1291 628 L 1291 760" stroke-miterlimit="10"/></g><g transform="translate(-126,-86) scale(1,1)"><rect fill="#C0C0C0" stroke="none" x="1479" y="183" width="122.369140625" height="72" opacity="0.2"/></g><g transform="translate(-126,-86) scale(1,1)"><rect fill="#ffffff" stroke="none" x="1472" y="176" width="122.369140625" height="72"/></g><g transform="translate(-126,-86) scale(1,1)"><path fill="none" stroke="#000000" d="M 1472 176 L 1594.369140625 176 L 1594.369140625 248 L 1472 248 L 1472 176 Z Z" stroke-miterlimit="10"/></g><g transform="translate(-126,-86) scale(1,1)"><path fill="none" stroke="#000000" d="M 1472 201 L 1594.369140625 201" stroke-miterlimit="10"/></g><g transform="translate(-126,-86) scale(1,1)"><path fill="none" stroke="#000000" d="M 1472 239 L 1594.369140625 239" stroke-miterlimit="10"/></g><g transform="translate(-126,-86) scale(1,1)"><g><path fill="none" stroke="none"/><text fill="#000000" stroke="none" font-family="Arial" font-size="13px" font-style="normal" font-weight="bold" text-decoration="none" x="1481.517822265625" y="195.5">ToppingController</text></g></g><g transform="translate(-126,-86) scale(1,1)"><g><path fill="none" stroke="none"/><text fill="#000000" stroke="none" font-family="Arial" font-size="13px" font-style="normal" font-weight="normal" text-decoration="none" x="1477" y="218.5">-model: Topping</text></g></g><g transform="translate(-126,-86) scale(1,1)"><g><path fill="none" stroke="none"/><text fill="#000000" stroke="none" font-family="Arial" font-size="13px" font-style="normal" font-weight="normal" text-decoration="none" x="1477" y="233.5">-view: ToppingView</text></g></g><g transform="translate(-126,-86) scale(1,1)"><path fill="none" stroke="#000000" d="M 1192 208 L 1139 208" stroke-miterlimit="10"/></g><g transform="translate(-126,-86) scale(1,1)"><path fill="none" stroke="#000000" d="M 1402 212 L 1472 212" stroke-miterlimit="10"/></g></g></svg>